<svg width="107" height="36" viewBox="0 0 107 36" fill="none" xmlns="http://www.w3.org/2000/svg">
<path d="M39.888 22V13.6H40.896L45.372 20.332V13.6H46.38V22H45.372L40.896 15.268V22H39.888ZM50.8134 22.144C50.2534 22.144 49.7494 22.016 49.3014 21.76C48.8534 21.504 48.4974 21.144 48.2334 20.68C47.9774 20.208 47.8494 19.656 47.8494 19.024C47.8494 18.392 47.9814 17.844 48.2454 17.38C48.5094 16.908 48.8654 16.544 49.3134 16.288C49.7694 16.032 50.2774 15.904 50.8374 15.904C51.3974 15.904 51.9014 16.032 52.3494 16.288C52.7974 16.544 53.1494 16.908 53.4054 17.38C53.6694 17.844 53.8014 18.392 53.8014 19.024C53.8014 19.656 53.6694 20.208 53.4054 20.68C53.1414 21.144 52.7814 21.504 52.3254 21.76C51.8774 22.016 51.3734 22.144 50.8134 22.144ZM50.8134 21.28C51.1574 21.28 51.4774 21.196 51.7734 21.028C52.0694 20.86 52.3094 20.608 52.4934 20.272C52.6774 19.936 52.7694 19.52 52.7694 19.024C52.7694 18.528 52.6774 18.112 52.4934 17.776C52.3174 17.44 52.0814 17.188 51.7854 17.02C51.4894 16.852 51.1734 16.768 50.8374 16.768C50.4934 16.768 50.1734 16.852 49.8774 17.02C49.5814 17.188 49.3414 17.44 49.1574 17.776C48.9734 18.112 48.8814 18.528 48.8814 19.024C48.8814 19.52 48.9734 19.936 49.1574 20.272C49.3414 20.608 49.5774 20.86 49.8654 21.028C50.1614 21.196 50.4774 21.28 50.8134 21.28ZM57.3206 22C56.7766 22 56.3486 21.868 56.0366 21.604C55.7246 21.34 55.5686 20.864 55.5686 20.176V16.9H54.5366V16.048H55.5686L55.7006 14.62H56.5766V16.048H58.3286V16.9H56.5766V20.176C56.5766 20.552 56.6526 20.808 56.8046 20.944C56.9566 21.072 57.2246 21.136 57.6086 21.136H58.2326V22H57.3206ZM62.1212 22.144C61.5532 22.144 61.0492 22.016 60.6092 21.76C60.1692 21.496 59.8212 21.132 59.5652 20.668C59.3172 20.204 59.1932 19.656 59.1932 19.024C59.1932 18.4 59.3172 17.856 59.5652 17.392C59.8132 16.92 60.1572 16.556 60.5972 16.3C61.0452 16.036 61.5612 15.904 62.1452 15.904C62.7212 15.904 63.2172 16.036 63.6332 16.3C64.0572 16.556 64.3812 16.896 64.6052 17.32C64.8292 17.744 64.9412 18.2 64.9412 18.688C64.9412 18.776 64.9372 18.864 64.9292 18.952C64.9292 19.04 64.9292 19.14 64.9292 19.252H60.1892C60.2132 19.708 60.3172 20.088 60.5012 20.392C60.6932 20.688 60.9292 20.912 61.2092 21.064C61.4972 21.216 61.8012 21.292 62.1212 21.292C62.5372 21.292 62.8852 21.196 63.1652 21.004C63.4452 20.812 63.6492 20.552 63.7772 20.224H64.7732C64.6132 20.776 64.3052 21.236 63.8492 21.604C63.4012 21.964 62.8252 22.144 62.1212 22.144ZM62.1212 16.756C61.6412 16.756 61.2132 16.904 60.8372 17.2C60.4692 17.488 60.2572 17.912 60.2012 18.472H63.9452C63.9212 17.936 63.7372 17.516 63.3932 17.212C63.0492 16.908 62.6252 16.756 62.1212 16.756ZM68.5572 22.144C67.8452 22.144 67.2532 21.964 66.7812 21.604C66.3092 21.244 66.0332 20.756 65.9532 20.14H66.9852C67.0492 20.452 67.2132 20.724 67.4772 20.956C67.7492 21.18 68.1132 21.292 68.5692 21.292C68.9932 21.292 69.3052 21.204 69.5052 21.028C69.7052 20.844 69.8052 20.628 69.8052 20.38C69.8052 20.02 69.6732 19.78 69.4092 19.66C69.1532 19.54 68.7892 19.432 68.3172 19.336C67.9972 19.272 67.6772 19.18 67.3572 19.06C67.0372 18.94 66.7692 18.772 66.5532 18.556C66.3372 18.332 66.2292 18.04 66.2292 17.68C66.2292 17.16 66.4212 16.736 66.8052 16.408C67.1972 16.072 67.7252 15.904 68.3892 15.904C69.0212 15.904 69.5372 16.064 69.9372 16.384C70.3452 16.696 70.5812 17.144 70.6452 17.728H69.6492C69.6092 17.424 69.4772 17.188 69.2532 17.02C69.0372 16.844 68.7452 16.756 68.3772 16.756C68.0172 16.756 67.7372 16.832 67.5372 16.984C67.3452 17.136 67.2492 17.336 67.2492 17.584C67.2492 17.824 67.3732 18.012 67.6212 18.148C67.8772 18.284 68.2212 18.4 68.6532 18.496C69.0212 18.576 69.3692 18.676 69.6972 18.796C70.0332 18.908 70.3052 19.08 70.5132 19.312C70.7292 19.536 70.8372 19.864 70.8372 20.296C70.8452 20.832 70.6412 21.276 70.2252 21.628C69.8172 21.972 69.2612 22.144 68.5572 22.144ZM72.2772 24.64V16.048H73.1892L73.2852 17.032C73.4772 16.744 73.7492 16.484 74.1012 16.252C74.4612 16.02 74.9172 15.904 75.4692 15.904C76.0612 15.904 76.5772 16.04 77.0172 16.312C77.4572 16.584 77.7972 16.956 78.0372 17.428C78.2852 17.9 78.4092 18.436 78.4092 19.036C78.4092 19.636 78.2852 20.172 78.0372 20.644C77.7972 21.108 77.4532 21.476 77.0052 21.748C76.5652 22.012 76.0492 22.144 75.4572 22.144C74.9692 22.144 74.5332 22.044 74.1492 21.844C73.7732 21.644 73.4852 21.364 73.2852 21.004V24.64H72.2772ZM75.3492 21.268C75.7492 21.268 76.1012 21.176 76.4052 20.992C76.7092 20.8 76.9492 20.536 77.1252 20.2C77.3012 19.864 77.3892 19.472 77.3892 19.024C77.3892 18.576 77.3012 18.184 77.1252 17.848C76.9492 17.512 76.7092 17.252 76.4052 17.068C76.1012 16.876 75.7492 16.78 75.3492 16.78C74.9492 16.78 74.5972 16.876 74.2932 17.068C73.9892 17.252 73.7492 17.512 73.5732 17.848C73.3972 18.184 73.3092 18.576 73.3092 19.024C73.3092 19.472 73.3972 19.864 73.5732 20.2C73.7492 20.536 73.9892 20.8 74.2932 20.992C74.5972 21.176 74.9492 21.268 75.3492 21.268ZM82.4884 22.144C81.9204 22.144 81.4164 22.016 80.9764 21.76C80.5364 21.496 80.1884 21.132 79.9324 20.668C79.6844 20.204 79.5604 19.656 79.5604 19.024C79.5604 18.4 79.6844 17.856 79.9324 17.392C80.1804 16.92 80.5244 16.556 80.9644 16.3C81.4124 16.036 81.9284 15.904 82.5124 15.904C83.0884 15.904 83.5844 16.036 84.0004 16.3C84.4244 16.556 84.7484 16.896 84.9724 17.32C85.1964 17.744 85.3084 18.2 85.3084 18.688C85.3084 18.776 85.3044 18.864 85.2964 18.952C85.2964 19.04 85.2964 19.14 85.2964 19.252H80.5564C80.5804 19.708 80.6844 20.088 80.8684 20.392C81.0604 20.688 81.2964 20.912 81.5764 21.064C81.8644 21.216 82.1684 21.292 82.4884 21.292C82.9044 21.292 83.2524 21.196 83.5324 21.004C83.8124 20.812 84.0164 20.552 84.1444 20.224H85.1404C84.9804 20.776 84.6724 21.236 84.2164 21.604C83.7684 21.964 83.1924 22.144 82.4884 22.144ZM82.4884 16.756C82.0084 16.756 81.5804 16.904 81.2044 17.2C80.8364 17.488 80.6244 17.912 80.5684 18.472H84.3124C84.2884 17.936 84.1044 17.516 83.7604 17.212C83.4164 16.908 82.9924 16.756 82.4884 16.756ZM89.3204 22.144C88.7524 22.144 88.2484 22.016 87.8084 21.76C87.3684 21.496 87.0204 21.132 86.7644 20.668C86.5164 20.204 86.3924 19.656 86.3924 19.024C86.3924 18.4 86.5164 17.856 86.7644 17.392C87.0124 16.92 87.3564 16.556 87.7964 16.3C88.2444 16.036 88.7604 15.904 89.3444 15.904C89.9204 15.904 90.4164 16.036 90.8324 16.3C91.2564 16.556 91.5804 16.896 91.8044 17.32C92.0284 17.744 92.1404 18.2 92.1404 18.688C92.1404 18.776 92.1364 18.864 92.1284 18.952C92.1284 19.04 92.1284 19.14 92.1284 19.252H87.3884C87.4124 19.708 87.5164 20.088 87.7004 20.392C87.8924 20.688 88.1284 20.912 88.4084 21.064C88.6964 21.216 89.0004 21.292 89.3204 21.292C89.7364 21.292 90.0844 21.196 90.3644 21.004C90.6444 20.812 90.8484 20.552 90.9764 20.224H91.9724C91.8124 20.776 91.5044 21.236 91.0484 21.604C90.6004 21.964 90.0244 22.144 89.3204 22.144ZM89.3204 16.756C88.8404 16.756 88.4124 16.904 88.0364 17.2C87.6684 17.488 87.4564 17.912 87.4004 18.472H91.1444C91.1204 17.936 90.9364 17.516 90.5924 17.212C90.2484 16.908 89.8244 16.756 89.3204 16.756ZM96.2124 22.144C95.6444 22.144 95.1324 22.016 94.6764 21.76C94.2284 21.496 93.8724 21.132 93.6084 20.668C93.3524 20.196 93.2244 19.648 93.2244 19.024C93.2244 18.4 93.3524 17.856 93.6084 17.392C93.8724 16.92 94.2284 16.556 94.6764 16.3C95.1324 16.036 95.6444 15.904 96.2124 15.904C96.9164 15.904 97.5084 16.088 97.9884 16.456C98.4764 16.824 98.7844 17.316 98.9124 17.932H97.8804C97.8004 17.564 97.6044 17.28 97.2924 17.08C96.9804 16.872 96.6164 16.768 96.2004 16.768C95.8644 16.768 95.5484 16.852 95.2524 17.02C94.9564 17.188 94.7164 17.44 94.5324 17.776C94.3484 18.112 94.2564 18.528 94.2564 19.024C94.2564 19.52 94.3484 19.936 94.5324 20.272C94.7164 20.608 94.9564 20.864 95.2524 21.04C95.5484 21.208 95.8644 21.292 96.2004 21.292C96.6164 21.292 96.9804 21.192 97.2924 20.992C97.6044 20.784 97.8004 20.492 97.8804 20.116H98.9124C98.7924 20.716 98.4884 21.204 98.0004 21.58C97.5124 21.956 96.9164 22.144 96.2124 22.144ZM100.32 22V13.36H101.328V17.068C101.528 16.7 101.812 16.416 102.18 16.216C102.548 16.008 102.948 15.904 103.38 15.904C104.068 15.904 104.62 16.12 105.036 16.552C105.452 16.976 105.66 17.632 105.66 18.52V22H104.664V18.628C104.664 17.388 104.164 16.768 103.164 16.768C102.644 16.768 102.208 16.956 101.856 17.332C101.504 17.7 101.328 18.228 101.328 18.916V22H100.32Z" fill="#4B53FF"/>
<circle cx="18" cy="18" r="17.5" stroke="#0D67EE"/>
<path d="M34.6665 17.9998C34.6665 22.4201 32.9105 26.6593 29.7849 29.7849C26.6593 32.9105 22.4201 34.6665 17.9998 34.6665C13.5795 34.6665 9.34029 32.9105 6.21468 29.7849C3.08908 26.6593 1.33313 22.4201 1.33313 17.9998L17.9998 17.9998H34.6665Z" fill="#CCE7FF"/>
<g clip-path="url(#clip0_1_17)">
<path d="M17.9999 20.4168C20.2095 20.4168 21.9999 18.7382 21.9999 16.6667H18.6666C18.2999 16.6667 17.9999 16.3855 17.9999 16.0417C17.9999 15.698 18.2999 15.4167 18.6666 15.4167H21.9999V14.1667H18.6666C18.2999 14.1667 17.9999 13.8855 17.9999 13.5417C17.9999 13.198 18.2999 12.9167 18.6666 12.9167H21.9999V11.6316H18.6666C18.2984 11.6316 17.9999 11.3517 17.9999 11.0066C17.9999 10.6614 18.2984 10.3816 18.6666 10.3816L21.9999 10.4167C21.9999 8.34526 20.2095 6.66675 17.9999 6.66675C15.7903 6.66675 13.9999 8.34526 13.9999 10.4167V16.6667C13.9999 18.7371 15.7541 20.4168 17.9999 20.4168ZM24.3332 14.1667C23.7791 14.1667 23.3332 14.5847 23.3332 15.0691V16.6667C23.3332 19.5312 20.7511 21.8386 17.6541 21.655C14.9007 21.4922 12.6666 19.0539 12.6666 16.4675V15.0691C12.6666 14.5847 12.2186 14.1667 11.6666 14.1667C11.1145 14.1667 10.6666 14.5847 10.6666 15.0691V16.325C10.6666 19.8273 13.332 22.95 16.9999 23.4226V24.7918H15.3332C14.5753 24.7918 13.9649 25.3847 14.0016 26.1031C14.0178 26.4246 14.3249 26.6668 14.6666 26.6668H21.3332C21.6758 26.6668 21.982 26.4239 21.9982 26.1031C22.0332 25.3855 21.4249 24.7918 20.6666 24.7918H18.9999V23.4726C22.5707 23.0144 25.3332 20.1394 25.3332 16.6667V15.0691C25.3332 14.5847 24.8874 14.1667 24.3332 14.1667Z" fill="#4B53FF"/>
</g>
<defs>
<clipPath id="clip0_1_17">
<rect width="20" height="20" fill="white" transform="translate(7.99988 6.66675)"/>
</clipPath>
</defs>
</svg>
