<svg width="130" height="119" viewBox="0 0 130 119" fill="none" xmlns="http://www.w3.org/2000/svg">
<path d="M129.5 59.5C129.5 92.0441 100.665 118.5 65 118.5C29.3351 118.5 0.5 92.0441 0.5 59.5C0.5 26.9559 29.3351 0.5 65 0.5C100.665 0.5 129.5 26.9559 129.5 59.5Z" stroke="url(#paint0_linear_1_20)"/>
<g clip-path="url(#clip0_1_20)">
<path d="M64.9995 67.4887C72.9786 67.4887 79.444 61.9403 79.444 55.0929H67.407C66.0829 55.0929 64.9995 54.1632 64.9995 53.0269C64.9995 51.8906 66.0829 50.9609 67.407 50.9609H79.444V46.829H67.407C66.0829 46.829 64.9995 45.8993 64.9995 44.763C64.9995 43.6267 66.0829 42.697 67.407 42.697H79.444V38.4489H67.407C66.0775 38.4489 64.9995 37.5239 64.9995 36.3829C64.9995 35.242 66.0775 34.3169 67.407 34.3169L79.444 34.4332C79.444 27.5858 72.9786 22.0373 64.9995 22.0373C57.0205 22.0373 50.5551 27.5858 50.5551 34.4332V55.0929C50.5551 61.9364 56.8896 67.4887 64.9995 67.4887ZM87.8699 46.829C85.8688 46.829 84.2588 48.2106 84.2588 49.8117V55.0929C84.2588 64.5615 74.9346 72.1888 63.7507 71.5819C53.8081 71.0436 45.7403 62.9836 45.7403 54.4344V49.8117C45.7403 48.2106 44.1228 46.829 42.1292 46.829C40.1355 46.829 38.5181 48.2106 38.5181 49.8117V53.9631C38.5181 65.5402 48.1432 75.8624 61.3884 77.4248V81.9505H55.3699C52.633 81.9505 50.4287 83.9106 50.5611 86.2852C50.6198 87.3479 51.7287 88.1484 52.9625 88.1484H77.0366C78.2737 88.1484 79.3793 87.3458 79.438 86.2852C79.5644 83.9132 77.3676 81.9505 74.6292 81.9505H68.6107V77.59C81.5053 76.0754 91.481 66.5719 91.481 55.0929V49.8117C91.481 48.2106 89.8711 46.829 87.8699 46.829Z" fill="url(#paint1_linear_1_20)"/>
</g>
<defs>
<linearGradient id="paint0_linear_1_20" x1="65" y1="0" x2="65" y2="119" gradientUnits="userSpaceOnUse">
<stop offset="0.03125" stop-color="#00C213"/>
<stop offset="0.9999" stop-color="#FF1515"/>
<stop offset="1" stop-color="#FF1515"/>
</linearGradient>
<linearGradient id="paint1_linear_1_20" x1="64.9995" y1="22.0373" x2="64.9995" y2="88.1484" gradientUnits="userSpaceOnUse">
<stop offset="0.03125" stop-color="#00C213"/>
<stop offset="0.9999" stop-color="#FF1515"/>
<stop offset="1" stop-color="#FF1515"/>
</linearGradient>
<clipPath id="clip0_1_20">
<rect width="72.2222" height="66.1111" fill="white" transform="translate(28.8884 22.0373)"/>
</clipPath>
</defs>
</svg>
