<svg width="20" height="20" viewBox="0 0 20 20" fill="none" xmlns="http://www.w3.org/2000/svg">
<path d="M6.03571 0.691016C6.27679 0.2675 6.77232 0 7.3125 0H12.6875C13.2277 0 13.7232 0.2675 13.9643 0.691016L14.2857 1.25H18.5714C19.3616 1.25 20 1.80977 20 2.5C20 3.19023 19.3616 3.75 18.5714 3.75H1.42857C0.639732 3.75 0 3.19023 0 2.5C0 1.80977 0.639732 1.25 1.42857 1.25H5.71429L6.03571 0.691016ZM17.625 18.207C17.5536 19.2305 16.6205 20 15.4866 20H4.51339C3.3817 20 2.44509 19.2305 2.37455 18.207L1.38839 5H18.5714L17.625 18.207Z" fill="#FF1515"/>
</svg>
